<svg xmlns="http://www.w3.org/2000/svg" width="50.713" height="28.864" viewBox="0 0 50.713 28.864">
    <defs>
        <style>
            .cls-1{fill:#ffe032}
        </style>
    </defs>
    <g id="noun_live_2146891" transform="translate(-5.5 -46.9)">
        <g id="Group_26219" transform="translate(5.5 46.9)">
            <path id="Path_28123" d="M83.585 55.281l-7.815 3.594a1.624 1.624 0 0 0-.97 1.54v8.956a1.718 1.718 0 0 0 .97 1.54l7.815 3.537a1.679 1.679 0 0 0 2.4-1.54V56.821a1.667 1.667 0 0 0-2.4-1.54z" class="cls-1" transform="translate(-35.269 -50.433)"/>
            <path id="Path_28124" d="M37.672 46.9H9.094A3.579 3.579 0 0 0 5.5 50.494V72.17a3.579 3.579 0 0 0 3.594 3.594h28.578a3.579 3.579 0 0 0 3.594-3.594V50.494a3.615 3.615 0 0 0-3.594-3.594zM23.411 70a8.671 8.671 0 1 1 8.613-8.67A8.667 8.667 0 0 1 23.411 70z" class="cls-1" transform="translate(-5.5 -46.9)"/>
            <path id="Path_28125" d="M33.183 65.07a.953.953 0 0 0-1.483.8v6.389a.937.937 0 0 0 1.483.8l4.792-3.194a.959.959 0 0 0 0-1.6z" class="cls-1" transform="translate(-16.755 -54.631)"/>
        </g>
    </g>
</svg>
