<svg xmlns="http://www.w3.org/2000/svg" width="20.279" height="26.097" viewBox="0 0 20.279 26.097">
    <path fill="#dedede" d="M22.469 30.807a4.943 4.943 0 0 1-2.494-4.06c-.087-3.248 2.175-4.842 3.509-7.017 1.914-3.132 1.392-5.074 1.392-5.074s1.595.9 2.523 4.234a7.7 7.7 0 0 1 .261 2.9 13.652 13.652 0 0 1-1.16 4.465s1.769-.377 2.262-3.6a5.636 5.636 0 0 1 1.653 3.335 5.246 5.246 0 0 1-3.132 5.1 10.133 10.133 0 0 0 6.7-5.8 14.383 14.383 0 0 0 .609-7.1 10.5 10.5 0 0 1 .754-4.9 6.393 6.393 0 0 0-3.277 2.842 8.635 8.635 0 0 0-.9 2.581 9.686 9.686 0 0 0-.754-3.857c-.9-2.436-1.711-3.306-2.2-5.1A6.884 6.884 0 0 1 28.993 5s-5.625 1.044-8.177 5.944c-2.262 4.35-1.334 6.959-1.334 6.959a6.681 6.681 0 0 1-1.45-2.146 5.6 5.6 0 0 1-.377-2.378s-4 4.408-2.059 9.946a11.294 11.294 0 0 0 6.873 7.482z" transform="translate(-15.065 -5)"/>
</svg>
